#!OML:ASF I:\Actors\actors\Patient Classification 1\Patient 1\Session 1\Subject1.ASF
:FULLY-SPECIFIED
:DEGREES
1051
root 0.227488 17.809 7.99254 16.7536 -9.11847 -5.48355
lowerback 5.75122 -0.778745 6.25387
upperback 5.6057 -0.95756 6.24538
thorax 2.61439 -0.417643 3.01241
lowerneck -8.74264 2.52255 5.83014
upperneck 21.148 3.07719 -3.17288
head 8.12117 1.58922 -1.74285
rclavicle -8.74653e-015 -9.38264e-014
rhumerus 33.9533 72.8774 -32.6624
rradius 60.0965
rwrist -36.812
rhand 19.2955 -30.1882
rfingers 7.12502
rthumb 43.8783 -54.1163
lclavicle -8.74653e-015 -9.38264e-014
lhumerus 66.874 -35.5746 -21.2838
lradius 70.679
lwrist 49.1238
lhand -4.72373 -11.7418
lfingers 7.12502
lthumb 21.0588 17.1348
rfemur -21.2916 22.3153 15.0403
rtibia 11.9346
rfoot -10.1794 -18.0295
rtoes -4.51141
lfemur -11.5115 -26.9282 -7.59598
ltibia 1.77226
lfoot -15.2571 44.2294
ltoes 6.66837
1052
root 0.229949 17.8107 8.01373 16.9943 -10.8904 -5.99022
lowerback 5.8509 -0.858646 6.10335
upperback 5.69986 -1.0668 5.92686
thorax 2.65166 -0.471278 2.76706
lowerneck -8.43935 3.10044 6.57391
upperneck 20.8441 3.84828 -3.62423
head 8.02875 1.9665 -1.94434
rclavicle 3.10104e-014 -5.725e-014
rhumerus 31.2981 73.1024 -36.3474
rradius 60.1711
rwrist -36.8185
rhand 19.0223 -30.1242
rfingers 7.12502
rthumb 43.6232 -54.1462
lclavicle 3.10104e-014 -5.725e-014
lhumerus 66.992 -36.1241 -20.1023
lradius 68.681
lwrist 48.6418
lhand -4.71496 -12.1671
lfingers 7.12502
lthumb 21.0673 16.7085
rfemur -21.7145 22.6161 15.4237
rtibia 12.0353
rfoot -9.78744 -16.6863
rtoes -5.82463
lfemur -11.0159 -26.3105 -7.48944
ltibia 1.8376
lfoot -16.912 45.0497
ltoes 8.9803
1053
root 0.232598 17.8082 8.03629 17.352 -12.7967 -6.54708
lowerback 5.76553 -0.875789 6.02062
upperback 5.82384 -1.11012 5.53132
thorax 2.82019 -0.485298 2.39936
lowerneck -8.08707 3.65929 7.28273
upperneck 20.5321 4.56874 -3.90491
head 7.92793 2.33389 -2.08898
rclavicle 3.77691e-014 -6.36111e-015
rhumerus 28.3922 73.3054 -40.306
rradius 60.1554
rwrist -36.4753
rhand 18.4986 -29.7071
rfingers 7.12502
rthumb 43.134 -53.9056
lclavicle 3.77691e-014 -6.36111e-015
lhumerus 66.9959 -36.8467 -18.7282
lradius 66.5891
lwrist 48.3762
lhand -4.83302 -12.3583
lfingers 7.12502
lthumb 20.9538 16.5298
rfemur -22.2637 22.9564 15.7897
rtibia 12.1588
rfoot -9.46126 -15.2239
rtoes -6.90673
lfemur -10.5205 -25.778 -7.33717
ltibia 1.82969
lfoot -18.8531 46.0061
ltoes 11.397
1054
root 0.235698 17.8031 8.0601 17.7662 -14.7601 -7.09736
lowerback 5.65507 -0.840923 5.91787
upperback 5.92654 -1.08371 5.13061
thorax 2.9805 -0.46488 2.03551
lowerneck -7.74207 4.19566 7.86584
upperneck 20.2377 5.2677 -4.11478
head 7.83554 2.68861 -2.19168
rclavicle 1.82882e-014 -7.95139e-016
rhumerus 25.2494 73.466 -44.385
rradius 59.9822
rwrist -35.9086
rhand 18.0016 -28.9622
rfingers 7.12502
rthumb 42.6691 -53.324
lclavicle 1.82882e-014 -7.95139e-016
lhumerus 66.8128 -37.8015 -16.9223
lradius 64.4368
lwrist 48.5184
lhand -5.17596 -12.0903
lfingers 7.12502
lthumb 20.6243 16.834
rfemur -22.842 23.2716 16.0968
rtibia 12.2701
rfoot -9.19302 -13.6778
rtoes -7.54133
lfemur -10.0269 -25.2082 -7.23259
ltibia 1.77462
lfoot -20.562 47.0183
ltoes 13.159
1055
root 0.23686 17.7988 8.08358 18.1554 -16.6816 -7.66711
lowerback 5.65608 -0.818833 5.74939
upperback 5.99039 -1.0617 4.77737
thorax 3.03975 -0.45195 1.76001
lowerneck -7.45701 4.70728 8.44958
upperneck 20.0478 5.9632 -4.47104
head 7.79854 3.02916 -2.34264
rclavicle -3.37934e-014 -3.77691e-014
rhumerus 21.6237 73.4827 -48.8107
rradius 59.8355
rwrist -35.6082
rhand 17.9944 -28.4993
rfingers 7.12502
rthumb 42.6623 -52.8635
lclavicle -3.37934e-014 -3.77691e-014
lhumerus 66.2153 -39.0063 -14.6623
lradius 62.3378
lwrist 49.1407
lhand -5.60666 -11.3685
lfingers 7.12502
lthumb 20.2104 17.6001
rfemur -23.2744 23.4829 16.4941
rtibia 12.297
rfoot -8.92419 -12.0644
rtoes -8.04099
lfemur -9.48187 -24.6155 -7.16422
ltibia 1.73277
lfoot -22.0428 48.0032
ltoes 14.2599
1056
root 0.23704 17.7962 8.10746 18.5445 -18.567 -8.10007
lowerback 5.71128 -0.85866 5.41141
upperback 6.02243 -1.11795 4.40776
thorax 3.03556 -0.484807 1.56527
lowerneck -7.25152 5.24311 9.05634
upperneck 19.843 6.71381 -4.97226
head 7.78759 3.38453 -2.53747
rclavicle -3.85642e-014 7.95139e-015
rhumerus 17.8232 73.4153 -53.3039
rradius 59.7961
rwrist -35.3976
rhand 18.203 -28.255
rfingers 7.12502
rthumb 42.8575 -52.5511
lclavicle -3.85642e-014 7.95139e-015
lhumerus 65.1404 -40.3411 -12.1684
lradius 60.3816
lwrist 50.4473
lhand -6.51721 -10.2929
lfingers 7.12502
lthumb 19.3351 18.7658
rfemur -23.6563 23.6017 16.7486
rtibia 12.2079
rfoot -8.59244 -10.43
rtoes -8.74117
lfemur -9.0009 -24.0191 -7.25842
ltibia 1.74368
lfoot -23.7197 48.8245
ltoes 15.513
1057
root 0.238633 17.7939 8.12171 18.7762 -20.4984 -8.17442
lowerback 5.9451 -0.841527 4.71419
upperback 6.03226 -1.09058 3.9082
thorax 2.9098 -0.487275 1.43605
lowerneck -7.10818 5.74058 9.63058
upperneck 19.6751 7.38372 -5.32296
head 7.79609 3.71202 -2.68226
rclavicle 8.59744e-014 -3.32964e-014
rhumerus 13.4316 73.1548 -58.2727
rradius 59.4244
rwrist -34.7118
rhand 18.4501 -26.7595
rfingers 7.12502
rthumb 43.0886 -50.974
lclavicle 8.59744e-014 -3.32964e-014
lhumerus 64.112 -41.6286 -9.7221
lradius 58.4524
lwrist 52.0042
lhand -7.13748 -9.24248
lfingers 7.12502
lthumb 18.7386 19.875
rfemur -24.1241 23.8225 16.5229
rtibia 12.2414
rfoot -8.2813 -8.92115
rtoes -9.3071
lfemur -8.59443 -23.4167 -7.73822
ltibia 1.85028
lfoot -25.7478 49.4191
ltoes 17.6444
1058
root 0.244429 17.7892 8.11798 18.6239 -22.5537 -7.84658
lowerback 6.58647 -0.722795 3.59546
upperback 6.04856 -0.92145 3.27322
thorax 2.56734 -0.432613 1.40325
lowerneck -6.83182 6.13522 10.1063
upperneck 19.3847 7.90656 -5.51876
head 7.72376 3.97823 -2.77738
rclavicle -2.8625e-014 4.24405e-014
rhumerus 8.27805 71.8792 -64.0206
rradius 59.3808
rwrist -34.6901
rhand 19.4336 -28.4034
rfingers 7.12502
rthumb 44.0071 -52.2837
lclavicle -2.8625e-014 4.24405e-014
lhumerus 63.1245 -42.8601 -7.20016
lradius 56.4547
lwrist 52.9137
lhand -6.75225 -8.37338
lfingers 7.12502
lthumb 19.1091 20.7079
rfemur -24.5953 24.2133 15.8271
rtibia 12.5344
rfoot -8.09019 -7.56943
rtoes -9.64037
lfemur -8.07848 -22.8952 -8.71277
ltibia 2.05293
lfoot -27.8541 50.0122
ltoes 19.7763
1059
root 0.241831 17.7834 8.14927 19.1136 -23.9089 -8.53379
lowerback 6.35418 -0.746444 3.75419
upperback 6.10877 -0.95933 2.90967
thorax 2.75017 -0.436177 0.936918
lowerneck -6.50053 6.49139 10.489
upperneck 18.9813 8.39119 -5.69839
head 7.59964 4.22228 -2.8578
rclavicle -1.64991e-014 -1.43125e-014
rhumerus 3.47088 70.1453 -69.343
rradius 58.7456
rwrist -34.257
rhand 20.6386 -27.9004
rfingers 7.12502
rthumb 45.1295 -51.3487
lclavicle -1.64991e-014 -1.43125e-014
lhumerus 61.7904 -44.1021 -4.46562
lradius 54.5864
lwrist 53.3259
lhand -6.21028 -7.72366
lfingers 7.12502
lthumb 19.6302 21.3053
rfemur -24.8121 24.4319 16.431
rtibia 12.4773
rfoot -7.92207 -6.32102
rtoes -10.2558
lfemur -7.72374 -22.1881 -8.45965
ltibia 2.07328
lfoot -28.79 50.4782
ltoes 20.2815
